<?xml version="1.0" standalone="no"?>
<!DOCTYPE svg PUBLIC "-//W3C//DTD SVG 20010904//EN"
 "http://www.w3.org/TR/2001/REC-SVG-20010904/DTD/svg10.dtd">
<svg version="1.0" xmlns="http://www.w3.org/2000/svg"
 width="804.000000pt" height="804.000000pt" viewBox="0 0 804.000000 804.000000"
 preserveAspectRatio="xMidYMid meet">
<metadata>
Created by potrace 1.11, written by Peter Selinger 2001-2013
</metadata>
<g transform="translate(0.000000,804.000000) scale(0.100000,-0.100000)"
fill="#000000" stroke="none">
<path d="M5002 7983 c-43 -37 -59 -49 -115 -85 -31 -21 -61 -38 -67 -38 -5 0
-19 -9 -30 -20 -11 -11 -20 -18 -20 -15 0 3 -26 -7 -57 -21 -198 -90 -421
-140 -748 -169 -33 -3 -73 -7 -90 -9 -16 -3 -70 -8 -120 -11 -49 -4 -99 -9
-110 -11 -11 -2 -58 -7 -105 -10 -47 -4 -93 -11 -104 -16 -14 -7 -16 -7 -11 2
5 9 3 9 -11 2 -18 -9 -79 -18 -179 -27 -22 -1 -65 -6 -95 -10 -30 -4 -66 -8
-80 -10 -60 -7 -129 -17 -180 -25 -30 -6 -71 -12 -90 -14 -20 -3 -47 -7 -60
-10 -14 -3 -41 -8 -60 -10 -105 -15 -338 -69 -429 -100 -39 -13 -71 -23 -71
-21 0 13 -167 -82 -195 -111 -47 -48 -51 -71 -27 -146 26 -80 39 -131 47 -188
4 -24 8 -47 10 -50 1 -3 6 -36 9 -75 4 -38 9 -88 11 -110 22 -206 27 -343 29
-906 l2 -547 -35 13 c-29 10 -44 10 -81 -1 -56 -17 -72 -30 -94 -73 -18 -33
-24 -136 -12 -191 3 -13 8 -41 11 -62 31 -206 108 -464 157 -523 49 -60 88
-92 102 -82 2 1 13 -7 25 -17 16 -15 37 -19 91 -19 63 -1 71 -3 75 -21 4 -18
13 -69 31 -181 3 -16 9 -52 14 -80 5 -27 12 -63 15 -80 18 -111 85 -354 116
-422 10 -24 19 -47 19 -53 0 -5 5 -10 10 -10 6 0 10 -6 10 -14 0 -33 152 -236
265 -354 33 -35 60 -68 60 -75 0 -6 -11 -14 -25 -18 -14 -4 -38 -12 -55 -19
-16 -7 -35 -14 -42 -16 -7 -1 -27 -9 -44 -18 -18 -9 -36 -16 -41 -16 -5 0 -34
-11 -64 -25 -30 -14 -57 -25 -59 -25 -2 0 -29 -11 -59 -25 -30 -14 -58 -25
-61 -25 -16 0 -389 -189 -498 -252 -303 -176 -528 -356 -683 -548 -70 -86
-124 -164 -124 -178 0 -6 -4 -12 -8 -14 -30 -12 -183 -397 -207 -518 -3 -19
-13 -55 -20 -80 -8 -25 -16 -58 -19 -75 -2 -16 -11 -70 -20 -120 -16 -96 -27
-165 -31 -205 -1 -14 -6 -54 -10 -90 -16 -141 -28 -359 -29 -535 l-1 -130
1618 0 c889 -1 1617 3 1617 8 0 8 -9 20 -40 56 -8 9 -27 32 -42 51 -15 19 -38
48 -52 64 -14 16 -26 33 -26 38 0 4 -7 8 -15 8 -8 0 -14 4 -13 9 2 5 -10 24
-27 42 -16 19 -48 57 -69 84 -22 28 -50 61 -63 74 -13 13 -23 28 -23 33 0 5
-4 7 -9 3 -5 -3 -3 8 5 23 12 25 20 59 40 162 3 14 20 99 39 190 19 91 36 176
39 190 3 14 19 93 36 175 17 83 32 159 34 170 2 11 7 31 10 45 3 14 8 36 10
50 2 14 18 91 35 171 16 80 33 161 36 180 3 19 8 41 10 49 2 8 7 31 10 50 3
19 10 52 16 73 5 20 7 42 4 47 -3 5 -1 11 5 15 5 3 10 12 10 18 0 17 -120 163
-131 160 -5 -2 -8 1 -6 6 2 10 -16 35 -113 150 -31 36 -61 73 -67 81 -11 14
28 16 372 16 340 -1 382 -2 372 -16 -7 -8 -15 -19 -20 -25 -4 -5 -17 -22 -30
-36 -12 -14 -38 -45 -57 -69 -19 -24 -40 -48 -45 -54 -6 -6 -28 -33 -50 -60
-22 -28 -55 -66 -73 -85 -17 -20 -35 -44 -38 -53 -3 -10 6 -71 20 -135 34
-158 57 -272 63 -308 2 -16 8 -46 13 -65 5 -19 12 -48 14 -65 7 -38 11 -56 37
-179 33 -162 131 -639 135 -661 17 -92 35 -168 44 -186 10 -18 8 -26 -18 -53
-16 -17 -91 -105 -166 -196 -76 -91 -150 -181 -167 -200 -16 -19 -29 -37 -29
-40 0 -5 3292 -6 3311 -1 12 3 -4 409 -25 641 -4 41 -9 85 -12 97 -2 12 -7 51
-10 85 -3 35 -8 66 -10 69 -2 4 -6 24 -9 45 -20 135 -80 380 -124 500 -167
458 -428 745 -956 1051 -130 75 -467 243 -488 243 -7 0 -17 4 -23 9 -11 11
-346 146 -387 156 -15 4 -30 11 -33 16 -3 5 -14 9 -25 9 -10 0 -19 3 -19 8 0
4 35 43 77 87 127 134 283 339 283 373 0 7 3 12 8 12 12 0 86 191 94 245 2 11
6 25 9 30 4 6 10 28 14 50 5 22 10 45 11 50 13 45 82 396 83 426 1 13 14 16
70 15 152 -1 222 93 301 404 12 47 24 96 27 110 2 13 12 60 23 105 37 161 41
235 16 282 -29 57 -107 88 -167 68 l-35 -13 0 677 c1 745 -5 885 -39 1007 -31
107 -134 224 -290 327 -86 57 -270 153 -365 191 -25 10 -56 23 -70 29 -14 6
-29 11 -34 11 -15 1 -43 54 -87 163 -52 125 -68 189 -72 286 -3 43 -6 80 -9
82 -3 3 -14 -3 -26 -12z m-1428 -2388 c80 -23 128 -64 171 -147 33 -63 42
-120 21 -141 -19 -18 -11 -47 13 -48 9 0 25 -3 36 -5 45 -10 353 -12 398 -3
50 11 80 42 52 53 -40 15 10 159 79 228 67 67 100 73 366 72 379 -1 818 -16
879 -29 14 -3 35 -7 46 -9 60 -12 143 -82 191 -161 11 -19 24 -33 27 -30 4 3
5 2 2 -1 -2 -4 5 -20 16 -35 11 -16 17 -29 13 -29 -4 0 0 -8 8 -17 8 -10 16
-39 17 -65 1 -54 -23 -88 -63 -88 -23 0 -23 -1 -21 -96 3 -137 -30 -316 -67
-361 -6 -7 -7 -13 -2 -13 5 0 5 -4 -1 -8 -5 -4 -21 -27 -34 -52 -79 -146 -215
-275 -331 -314 -80 -26 -101 -28 -335 -31 -322 -4 -382 13 -512 146 -95 98
-113 123 -169 237 -31 62 -61 118 -67 125 -7 7 -23 28 -37 47 -13 19 -28 40
-32 45 -63 79 -98 133 -98 151 0 28 32 60 68 67 25 5 27 10 27 55 l1 49 -41
-8 c-48 -9 -363 -4 -387 6 -16 6 -18 1 -16 -49 2 -54 4 -56 29 -56 28 0 69
-39 69 -66 0 -12 -57 -93 -143 -204 -20 -25 -63 -99 -96 -165 -51 -102 -73
-133 -143 -205 -104 -107 -122 -122 -178 -142 -81 -30 -139 -37 -330 -37 -303
-1 -411 27 -526 136 -54 50 -129 141 -152 182 -8 13 -22 38 -31 55 -27 48 -70
159 -78 202 -4 22 -8 99 -8 171 l0 133 -27 0 c-67 0 -87 118 -32 188 16 20 43
57 59 82 109 163 134 171 574 185 96 3 176 6 177 8 1 1 128 3 282 5 236 3 289
1 336 -13z"/>
<path d="M2928 5445 c-2 -2 -67 -6 -143 -9 -161 -6 -228 -21 -340 -75 -146
-72 -165 -108 -171 -331 -4 -144 12 -223 66 -330 95 -188 228 -319 350 -346
86 -18 165 -24 313 -23 186 2 249 10 315 42 52 24 153 121 199 191 l32 49 -30
28 c-24 22 -29 34 -23 51 3 12 48 75 98 140 87 114 127 172 125 183 -1 3 2 29
6 58 20 128 15 152 -44 204 -51 46 -198 113 -281 128 -14 2 -49 9 -78 15 -29
5 -123 12 -210 15 -86 4 -162 8 -169 10 -6 2 -13 2 -15 0z"/>
<path d="M5078 5446 c-1 -2 -73 -7 -158 -10 -172 -8 -183 -9 -261 -25 -30 -6
-63 -13 -74 -15 -75 -15 -197 -78 -251 -130 -50 -49 -53 -69 -32 -199 12 -79
13 -81 140 -246 55 -72 88 -124 88 -139 0 -23 -33 -62 -52 -62 -14 0 51 -89
111 -153 59 -62 135 -111 191 -122 65 -14 431 -13 505 0 135 24 224 85 318
217 46 65 114 192 124 231 22 92 29 154 28 227 -2 80 -6 115 -22 199 -8 47
-64 99 -153 143 -123 60 -151 66 -340 74 -74 3 -140 7 -147 9 -6 2 -13 2 -15
1z"/>
</g>
</svg>
